<svg xmlns="http://www.w3.org/2000/svg" viewBox="0 0 800 240" width="800" height="240">
  <rect width="800" height="240" fill="#0d1117" rx="12"/>

  <!-- Title -->
  <text x="400" y="24" text-anchor="middle" font-family="monospace" font-size="13" font-weight="bold" fill="#8b949e">⎈  Live Kubernetes Cluster  ·  Amazon EKS  ·  3 Nodes  ·  99.9% Uptime</text>

  <!-- Node 1 -->
  <rect x="20" y="38" width="235" height="185" fill="#161b22" stroke="#326ce5" stroke-width="1.5" rx="8"/>
  <text x="137" y="58" text-anchor="middle" font-family="monospace" font-size="11" font-weight="bold" fill="#58a6ff">🖥  Node: ip-10-0-1-42</text>
  <text x="137" y="72" text-anchor="middle" font-family="monospace" font-size="9" fill="#484f58">m5.xlarge  ·  us-east-1a</text>

  <!-- CPU bar node 1 -->
  <text x="30" y="90" font-family="monospace" font-size="9" fill="#8b949e">CPU</text>
  <rect x="55" y="81" width="185" height="10" fill="#21262d" rx="5"/>
  <rect x="55" y="81" width="0" height="10" fill="#1f6feb" rx="5">
    <animate attributeName="width" values="0;130;138;125;130" dur="8s" repeatCount="indefinite" calcMode="spline" keySplines="0.25 0.1 0.25 1;0.25 0.1 0.25 1;0.25 0.1 0.25 1;0.25 0.1 0.25 1"/>
  </rect>
  <text x="245" y="90" font-family="monospace" font-size="9" fill="#58a6ff">
    68%<animate attributeName="textContent" values="68%;72%;65%;68%" dur="8s" repeatCount="indefinite"/>
  </text>

  <!-- MEM bar node 1 -->
  <text x="30" y="108" font-family="monospace" font-size="9" fill="#8b949e">MEM</text>
  <rect x="55" y="99" width="185" height="10" fill="#21262d" rx="5"/>
  <rect x="55" y="99" width="148" height="10" fill="#3fb950" rx="5">
    <animate attributeName="width" values="148;152;145;148" dur="10s" repeatCount="indefinite"/>
  </rect>
  <text x="245" y="108" font-family="monospace" font-size="9" fill="#56d364">80%</text>

  <!-- Pods in node 1 -->
  <text x="30" y="126" font-family="monospace" font-size="9" fill="#484f58">PODS (4/4 Running)</text>

  <rect x="30" y="132" width="96" height="30" fill="#0d1117" stroke="#56d364" stroke-width="1" rx="5"/>
  <circle cx="41" cy="147" r="4" fill="#56d364"><animate attributeName="opacity" values="1;0.4;1" dur="2s" repeatCount="indefinite"/></circle>
  <text x="50" y="145" font-family="monospace" font-size="8" fill="#e6edf3">payment-api</text>
  <text x="50" y="157" font-family="monospace" font-size="7" fill="#56d364">Running</text>

  <rect x="134" y="132" width="96" height="30" fill="#0d1117" stroke="#56d364" stroke-width="1" rx="5"/>
  <circle cx="145" cy="147" r="4" fill="#56d364"><animate attributeName="opacity" values="1;0.4;1" dur="2.3s" repeatCount="indefinite"/></circle>
  <text x="154" y="145" font-family="monospace" font-size="8" fill="#e6edf3">user-svc</text>
  <text x="154" y="157" font-family="monospace" font-size="7" fill="#56d364">Running</text>

  <rect x="30" y="170" width="96" height="30" fill="#0d1117" stroke="#56d364" stroke-width="1" rx="5"/>
  <circle cx="41" cy="185" r="4" fill="#56d364"><animate attributeName="opacity" values="1;0.4;1" dur="1.8s" repeatCount="indefinite"/></circle>
  <text x="50" y="183" font-family="monospace" font-size="8" fill="#e6edf3">notif-svc</text>
  <text x="50" y="195" font-family="monospace" font-size="7" fill="#56d364">Running</text>

  <rect x="134" y="170" width="96" height="30" fill="#0d1117" stroke="#e3b341" stroke-width="1" rx="5"/>
  <circle cx="145" cy="185" r="4" fill="#e3b341">
    <animate attributeName="fill" values="#e3b341;#56d364;#e3b341" dur="3s" repeatCount="indefinite"/>
  </circle>
  <text x="154" y="183" font-family="monospace" font-size="8" fill="#e6edf3">analytics</text>
  <text x="154" y="195" font-family="monospace" font-size="7" fill="#e3b341">
    Deploying<animate attributeName="fill" values="#e3b341;#56d364" dur="3s" fill="freeze"/>
  </text>

  <!-- Node 2 -->
  <rect x="283" y="38" width="235" height="185" fill="#161b22" stroke="#326ce5" stroke-width="1.5" rx="8"/>
  <text x="400" y="58" text-anchor="middle" font-family="monospace" font-size="11" font-weight="bold" fill="#58a6ff">🖥  Node: ip-10-0-2-17</text>
  <text x="400" y="72" text-anchor="middle" font-family="monospace" font-size="9" fill="#484f58">m5.xlarge  ·  us-east-1b</text>

  <text x="293" y="90" font-family="monospace" font-size="9" fill="#8b949e">CPU</text>
  <rect x="318" y="81" width="185" height="10" fill="#21262d" rx="5"/>
  <rect x="318" y="81" width="0" height="10" fill="#1f6feb" rx="5">
    <animate attributeName="width" values="0;95;102;90;95" dur="9s" repeatCount="indefinite"/>
  </rect>
  <text x="508" y="90" font-family="monospace" font-size="9" fill="#58a6ff">51%</text>

  <text x="293" y="108" font-family="monospace" font-size="9" fill="#8b949e">MEM</text>
  <rect x="318" y="99" width="185" height="10" fill="#21262d" rx="5"/>
  <rect x="318" y="99" width="120" height="10" fill="#3fb950" rx="5"/>
  <text x="508" y="108" font-family="monospace" font-size="9" fill="#56d364">65%</text>

  <text x="293" y="126" font-family="monospace" font-size="9" fill="#484f58">PODS (3/3 Running)</text>

  <rect x="293" y="132" width="96" height="30" fill="#0d1117" stroke="#56d364" stroke-width="1" rx="5"/>
  <circle cx="304" cy="147" r="4" fill="#56d364"><animate attributeName="opacity" values="1;0.4;1" dur="2.5s" repeatCount="indefinite"/></circle>
  <text x="313" y="145" font-family="monospace" font-size="8" fill="#e6edf3">argocd-srv</text>
  <text x="313" y="157" font-family="monospace" font-size="7" fill="#56d364">Running</text>

  <rect x="397" y="132" width="96" height="30" fill="#0d1117" stroke="#56d364" stroke-width="1" rx="5"/>
  <circle cx="408" cy="147" r="4" fill="#56d364"><animate attributeName="opacity" values="1;0.4;1" dur="2.1s" repeatCount="indefinite"/></circle>
  <text x="417" y="145" font-family="monospace" font-size="8" fill="#e6edf3">prometheus</text>
  <text x="417" y="157" font-family="monospace" font-size="7" fill="#56d364">Running</text>

  <rect x="293" y="170" width="200" height="30" fill="#0d1117" stroke="#56d364" stroke-width="1" rx="5"/>
  <circle cx="304" cy="185" r="4" fill="#56d364"><animate attributeName="opacity" values="1;0.4;1" dur="1.9s" repeatCount="indefinite"/></circle>
  <text x="313" y="183" font-family="monospace" font-size="8" fill="#e6edf3">otel-collector-daemonset</text>
  <text x="313" y="195" font-family="monospace" font-size="7" fill="#56d364">Running</text>

  <!-- Node 3 -->
  <rect x="546" y="38" width="235" height="185" fill="#161b22" stroke="#326ce5" stroke-width="1.5" rx="8"/>
  <text x="663" y="58" text-anchor="middle" font-family="monospace" font-size="11" font-weight="bold" fill="#58a6ff">🖥  Node: ip-10-0-3-88</text>
  <text x="663" y="72" text-anchor="middle" font-family="monospace" font-size="9" fill="#484f58">m5.xlarge  ·  us-east-1c</text>

  <text x="556" y="90" font-family="monospace" font-size="9" fill="#8b949e">CPU</text>
  <rect x="581" y="81" width="185" height="10" fill="#21262d" rx="5"/>
  <rect x="581" y="81" width="0" height="10" fill="#1f6feb" rx="5">
    <animate attributeName="width" values="0;157;162;150;157" dur="7s" repeatCount="indefinite"/>
  </rect>
  <text x="771" y="90" font-family="monospace" font-size="9" fill="#ff7b72">84%</text>

  <text x="556" y="108" font-family="monospace" font-size="9" fill="#8b949e">MEM</text>
  <rect x="581" y="99" width="185" height="10" fill="#21262d" rx="5"/>
  <rect x="581" y="99" width="163" height="10" fill="#ff7b72" rx="5">
    <animate attributeName="fill" values="#ff7b72;#e3b341;#ff7b72" dur="4s" repeatCount="indefinite"/>
  </rect>
  <text x="771" y="108" font-family="monospace" font-size="9" fill="#ff7b72">88%</text>

  <text x="556" y="126" font-family="monospace" font-size="9" fill="#484f58">PODS (3/3 Running)</text>

  <rect x="556" y="132" width="96" height="30" fill="#0d1117" stroke="#56d364" stroke-width="1" rx="5"/>
  <circle cx="567" cy="147" r="4" fill="#56d364"><animate attributeName="opacity" values="1;0.4;1" dur="2.7s" repeatCount="indefinite"/></circle>
  <text x="576" y="145" font-family="monospace" font-size="8" fill="#e6edf3">grafana</text>
  <text x="576" y="157" font-family="monospace" font-size="7" fill="#56d364">Running</text>

  <rect x="660" y="132" width="96" height="30" fill="#0d1117" stroke="#56d364" stroke-width="1" rx="5"/>
  <circle cx="671" cy="147" r="4" fill="#56d364"><animate attributeName="opacity" values="1;0.4;1" dur="2.2s" repeatCount="indefinite"/></circle>
  <text x="680" y="145" font-family="monospace" font-size="8" fill="#e6edf3">vault-agent</text>
  <text x="680" y="157" font-family="monospace" font-size="7" fill="#56d364">Running</text>

  <rect x="556" y="170" width="200" height="30" fill="#0d1117" stroke="#56d364" stroke-width="1" rx="5"/>
  <circle cx="567" cy="185" r="4" fill="#56d364"><animate attributeName="opacity" values="1;0.4;1" dur="3.1s" repeatCount="indefinite"/></circle>
  <text x="576" y="183" font-family="monospace" font-size="8" fill="#e6edf3">node-exporter-daemonset</text>
  <text x="576" y="195" font-family="monospace" font-size="7" fill="#56d364">Running</text>

  <!-- HPA indicator -->
  <rect x="556" y="210" width="200" height="12" fill="#161b22" rx="3"/>
  <text x="656" y="220" text-anchor="middle" font-family="monospace" font-size="8" fill="#e3b341">⚠  HPA: 3/4 max replicas — scaling up</text>
</svg>
